<svg width="83" height="82" viewBox="0 0 83 82" fill="none" xmlns="http://www.w3.org/2000/svg">
<path fill-rule="evenodd" clip-rule="evenodd" d="M9.02342 59.8729C8.2602 58.551 8.71313 56.8606 10.0351 56.0974L67.4834 22.9295C68.8054 22.1663 70.4958 22.6192 71.259 23.9412C72.0222 25.2631 71.5693 26.9535 70.2473 27.7167L12.799 60.8846C11.477 61.6478 9.78664 61.1948 9.02342 59.8729Z" fill="white"/>
<path fill-rule="evenodd" clip-rule="evenodd" d="M42.4487 12.5915C42.9756 11.1589 44.5642 10.4247 45.9968 10.9516L71.569 20.357C73.6561 21.1246 74.8968 23.2736 74.5181 25.4649L69.8773 52.3138C69.6173 53.8179 68.1872 54.8265 66.683 54.5665C65.1789 54.3065 64.1703 52.8764 64.4303 51.3723L68.9403 25.2799L44.0887 16.1396C42.656 15.6127 41.9218 14.0241 42.4487 12.5915Z" fill="white"/>
</svg>