<svg width="35" height="52" viewBox="0 0 35 52" fill="none" xmlns="http://www.w3.org/2000/svg">
<path fill-rule="evenodd" clip-rule="evenodd" d="M17.4451 51.1235C16.4206 51.1235 15.5901 50.293 15.5901 49.2685L15.5901 4.7453C15.5901 3.72078 16.4206 2.89024 17.4451 2.89024C18.4697 2.89024 19.3002 3.72078 19.3002 4.7453L19.3002 49.2685C19.3002 50.293 18.4697 51.1235 17.4451 51.1235Z" fill="#6340CA"/>
<path fill-rule="evenodd" clip-rule="evenodd" d="M1.17906 15.8276C0.523158 15.0406 0.629476 13.8708 1.41652 13.2149L15.4653 1.50719C16.6119 0.551664 18.2774 0.551668 19.424 1.50719L33.4727 13.2149C34.2598 13.8708 34.3661 15.0406 33.7102 15.8276C33.0543 16.6147 31.8846 16.721 31.0975 16.0651L17.4446 4.68725L3.79174 16.0651C3.00469 16.721 1.83495 16.6147 1.17906 15.8276Z" fill="#6340CA"/>
</svg>
