<svg width="22" height="22" viewBox="0 0 22 22" fill="none" xmlns="http://www.w3.org/2000/svg">
<path d="M14.7098 7.28996C14.6169 7.19623 14.5063 7.12183 14.3844 7.07107C14.2626 7.0203 14.1318 6.99416 13.9998 6.99416C13.8678 6.99416 13.7371 7.0203 13.6153 7.07107C13.4934 7.12183 13.3828 7.19623 13.2898 7.28996L10.9998 9.58996L8.70984 7.28996C8.52153 7.10165 8.26614 6.99587 7.99984 6.99587C7.73353 6.99587 7.47814 7.10165 7.28983 7.28996C7.10153 7.47826 6.99574 7.73366 6.99574 7.99996C6.99574 8.26626 7.10153 8.52165 7.28983 8.70996L9.58984 11L7.28983 13.29C7.19611 13.3829 7.12171 13.4935 7.07094 13.6154C7.02017 13.7372 6.99404 13.8679 6.99404 14C6.99404 14.132 7.02017 14.2627 7.07094 14.3845C7.12171 14.5064 7.19611 14.617 7.28983 14.71C7.3828 14.8037 7.4934 14.8781 7.61526 14.9288C7.73712 14.9796 7.86782 15.0058 7.99984 15.0058C8.13185 15.0058 8.26255 14.9796 8.38441 14.9288C8.50627 14.8781 8.61687 14.8037 8.70984 14.71L10.9998 12.41L13.2898 14.71C13.3828 14.8037 13.4934 14.8781 13.6153 14.9288C13.7371 14.9796 13.8678 15.0058 13.9998 15.0058C14.1318 15.0058 14.2626 14.9796 14.3844 14.9288C14.5063 14.8781 14.6169 14.8037 14.7098 14.71C14.8036 14.617 14.878 14.5064 14.9287 14.3845C14.9795 14.2627 15.0056 14.132 15.0056 14C15.0056 13.8679 14.9795 13.7372 14.9287 13.6154C14.878 13.4935 14.8036 13.3829 14.7098 13.29L12.4098 11L14.7098 8.70996C14.8036 8.61699 14.878 8.50639 14.9287 8.38453C14.9795 8.26267 15.0056 8.13197 15.0056 7.99996C15.0056 7.86795 14.9795 7.73724 14.9287 7.61538C14.878 7.49352 14.8036 7.38292 14.7098 7.28996ZM18.0698 3.92996C17.1474 2.97486 16.0439 2.21303 14.8239 1.68894C13.6038 1.16485 12.2916 0.888991 10.9638 0.877453C9.63605 0.865915 8.31926 1.11893 7.09029 1.62174C5.86133 2.12455 4.74481 2.86708 3.80589 3.80601C2.86696 4.74493 2.12443 5.86145 1.62162 7.09042C1.11881 8.31938 0.865793 9.63618 0.877331 10.964C0.888869 12.2918 1.16473 13.604 1.68882 14.824C2.21291 16.044 2.97473 17.1475 3.92984 18.07C4.8523 19.0251 5.95575 19.7869 7.17579 20.311C8.39583 20.8351 9.70803 21.1109 11.0358 21.1225C12.3636 21.134 13.6804 20.881 14.9094 20.3782C16.1383 19.8754 17.2549 19.1328 18.1938 18.1939C19.1327 17.255 19.8752 16.1385 20.3781 14.9095C20.8809 13.6805 21.1339 12.3637 21.1223 11.0359C21.1108 9.70815 20.8349 8.39595 20.3109 7.17591C19.7868 5.95587 19.0249 4.85243 18.0698 3.92996ZM16.6598 16.66C15.3519 17.9694 13.6304 18.7848 11.7886 18.9673C9.94688 19.1497 8.09884 18.688 6.55936 17.6607C5.01987 16.6334 3.88419 15.1042 3.34581 13.3334C2.80742 11.5627 2.89964 9.6601 3.60675 7.94974C4.31386 6.23938 5.59211 4.82711 7.22373 3.95352C8.85534 3.07993 10.7394 2.79909 12.5548 3.15883C14.3703 3.51857 16.0049 4.49665 17.1801 5.92642C18.3553 7.35619 18.9984 9.14919 18.9998 11C19.0034 12.0512 18.7984 13.0928 18.3968 14.0643C17.9951 15.0359 17.4047 15.9181 16.6598 16.66Z" fill="#585555"/>
</svg>
