<svg width="4" height="16" viewBox="0 0 4 16" fill="none" xmlns="http://www.w3.org/2000/svg">
<path d="M2.00014 0.0831699C1.58022 0.0831699 1.17749 0.249986 0.880558 0.546918C0.583626 0.843851 0.41681 1.24658 0.41681 1.6665V7.99984C0.41681 8.41976 0.583626 8.82249 0.880558 9.11942C1.17749 9.41636 1.58022 9.58317 2.00014 9.58317C2.42007 9.58317 2.8228 9.41636 3.11973 9.11942C3.41666 8.82249 3.58348 8.41976 3.58348 7.99984V1.6665C3.58348 1.24658 3.41666 0.843851 3.11973 0.546918C2.8228 0.249986 2.42007 0.0831699 2.00014 0.0831699ZM2.00014 12.7498C1.68699 12.7498 1.38087 12.8427 1.12049 13.0167C0.860112 13.1907 0.657173 13.4379 0.537334 13.7273C0.417496 14.0166 0.38614 14.3349 0.447233 14.6421C0.508327 14.9492 0.659125 15.2313 0.880558 15.4528C1.10199 15.6742 1.38411 15.825 1.69125 15.8861C1.99839 15.9472 2.31674 15.9158 2.60606 15.796C2.89538 15.6761 3.14266 15.4732 3.31664 15.2128C3.49062 14.9524 3.58348 14.6463 3.58348 14.3332C3.58348 13.9132 3.41666 13.5105 3.11973 13.2136C2.8228 12.9167 2.42007 12.7498 2.00014 12.7498Z" fill="#F04B4B"/>
</svg>
