<svg width="24" height="24" viewBox="0 0 24 24" fill="none" xmlns="http://www.w3.org/2000/svg">
<path fill-rule="evenodd" clip-rule="evenodd" d="M10.8873 2.32102C10.8403 1.57826 11.7737 1.06518 12.3536 1.68446C13.6374 3.05544 14.4738 4.49072 14.8034 6.36491C15.0659 7.85744 14.9996 9.58943 14.6379 11.7352C14.8958 11.4699 15.1376 11.1605 15.3542 10.818C15.8807 9.98554 16.2065 9.03701 16.2601 8.23052C16.2851 7.85424 16.5418 7.57462 16.8461 7.475C17.1611 7.37185 17.5634 7.45449 17.8007 7.79351C18.3845 8.62793 18.9176 9.91297 19.2756 11.2611C19.6346 12.6133 19.8417 14.1192 19.7102 15.4094C19.3413 19.0264 16.6358 22.75 11.8282 22.75C7.83819 22.75 5.31733 20.5603 4.52086 17.7269C3.73845 14.9434 4.6518 11.6452 7.23796 9.43035C9.18563 7.76229 10.0888 6.94176 10.5399 6.07974C10.9637 5.26984 11.0161 4.35727 10.8873 2.32102ZM12.4457 4.24838C12.4183 5.21867 12.2671 6.01439 11.869 6.77519C11.2531 7.95204 10.0737 8.97664 8.21367 10.5696L8.21366 10.5697C6.05475 12.4186 5.34632 15.1203 5.9649 17.3209C6.56942 19.4715 8.47232 21.25 11.8282 21.25C15.6822 21.25 17.9069 18.3069 18.2179 15.2572C18.3247 14.2096 18.1578 12.8964 17.8258 11.6461C17.6858 11.1187 17.5206 10.6184 17.3431 10.1683C17.1547 10.6721 16.91 11.1642 16.622 11.6197C15.9878 12.6226 15.0916 13.5283 14.0119 13.9663C13.3163 14.2485 12.7422 13.5951 12.868 13.0022C13.4687 10.1711 13.6006 8.18605 13.3261 6.62469C13.1705 5.73982 12.8808 4.97196 12.4457 4.24838Z" fill="#F5F5F5"/>
</svg>