<svg width="24" height="24" viewBox="0 0 24 24" fill="none" xmlns="http://www.w3.org/2000/svg">
<path fill-rule="evenodd" clip-rule="evenodd" d="M12 2.75C6.89137 2.75 2.75 6.89137 2.75 12C2.75 17.1086 6.89137 21.25 12 21.25C17.1086 21.25 21.25 17.1086 21.25 12C21.25 6.89137 17.1086 2.75 12 2.75ZM1.25 12C1.25 6.06294 6.06294 1.25 12 1.25C17.9371 1.25 22.75 6.06294 22.75 12C22.75 17.9371 17.9371 22.75 12 22.75C6.06294 22.75 1.25 17.9371 1.25 12Z" fill="#F5F5F5"/>
<path fill-rule="evenodd" clip-rule="evenodd" d="M2.25 9C2.25 8.58579 2.58579 8.25 3 8.25H21C21.4142 8.25 21.75 8.58579 21.75 9C21.75 9.41421 21.4142 9.75 21 9.75H3C2.58579 9.75 2.25 9.41421 2.25 9Z" fill="#F5F5F5"/>
<path fill-rule="evenodd" clip-rule="evenodd" d="M2.25 15C2.25 14.5858 2.58579 14.25 3 14.25H21C21.4142 14.25 21.75 14.5858 21.75 15C21.75 15.4142 21.4142 15.75 21 15.75H3C2.58579 15.75 2.25 15.4142 2.25 15Z" fill="#F5F5F5"/>
<path fill-rule="evenodd" clip-rule="evenodd" d="M10.6001 2.66838C11.275 1.68054 12.7253 1.68055 13.4002 2.66841C15.5999 5.88838 16.75 8.91793 16.75 12C16.75 15.0821 15.5999 18.1116 13.4002 21.3316C12.7253 22.3195 11.275 22.3195 10.6001 21.3317C8.4002 18.1117 7.25005 15.0821 7.25006 12C7.25007 8.91791 8.40024 5.88835 10.6001 2.66838ZM12.1616 3.51454C12.0824 3.3985 11.9179 3.39849 11.8386 3.51454C9.74612 6.57741 8.75007 9.31499 8.75006 12C8.75005 14.685 9.74608 17.4226 11.8386 20.4855C11.9179 20.6015 12.0823 20.6015 12.1616 20.4855C14.254 17.4226 15.25 14.685 15.25 12C15.25 9.31498 14.254 6.5774 12.1616 3.51454Z" fill="#F5F5F5"/>
</svg>