<svg width="129" height="15" viewBox="0 0 129 15" fill="none" xmlns="http://www.w3.org/2000/svg">
<path fill-rule="evenodd" clip-rule="evenodd" d="M123.7 12.9584C126.138 12.9584 127.074 11.3582 127.074 9.16653C127.074 6.95752 126.155 5.3225 123.7 5.3225C121.297 5.3225 120.325 6.97492 120.325 9.16653C120.325 11.3582 121.262 12.9584 123.7 12.9584ZM126.933 0H129V14.6108H126.933V13.5324H126.898C126.138 14.3499 124.989 14.7847 123.541 14.7847C120.025 14.7847 118.258 12.4192 118.258 9.18393C118.258 5.8965 120.025 3.47876 123.541 3.47876C124.919 3.47876 126.155 4.00058 126.898 4.81808H126.933V0ZM52.9813 0.521814H42.3807V14.6108H44.5008V9.07957V5.61675H54.2132V14.6108H56.2803V9.20132C56.2803 6.59225 57.7114 5.58341 59.5665 5.60081H60.2202V3.53094H59.7432C58.2768 3.53094 56.9517 4.2093 56.3157 5.40947H56.2803V3.6527H54.2132H44.5008V2.66125L44.2888 2.45253H52.9813V0.521814ZM24.524 3.47876C21.4806 3.47876 19.5604 5.30872 19.1126 7.97217H18.0358V0.362305H15.8273V7.97217H11.8866L8.55118 0.724731H6.48406L0 14.8137H2.31447L3.81623 11.5437L4.4594 10.1464H10.6198L11.219 11.5437L12.7208 14.8137H15.0352L12.8872 10.1464H15.8273V14.8571H18.0358V10.1464H19.0658C19.3887 12.8297 21.1647 14.7847 24.6123 14.7847C26.3084 14.7847 27.7925 14.2629 29.0469 13.1323L27.6335 11.7408C26.7501 12.5583 25.7784 12.9758 24.6123 12.9758C22.5982 12.9758 21.4851 11.9321 21.1671 10.2276L21.0847 10.1464H29.9983L29.9527 9.60772C29.9613 9.47665 29.9656 9.34768 29.9656 9.21872C29.9656 5.94868 28.2165 3.47876 24.524 3.47876ZM9.68746 7.97217L7.64866 3.21778L5.4602 7.97217L9.68746 7.97217ZM24.524 5.28772C26.4077 5.28772 27.4649 6.33873 27.7976 7.97217L21.2168 7.97217C21.5825 6.38868 22.5887 5.28772 24.524 5.28772ZM41.2813 3.6527L37.1294 9.11435L41.3166 14.6108H38.7371L36.458 11.5669L35.8749 10.5928H35.8396L35.2742 11.5669L32.9774 14.6108H30.4156L34.6029 9.11435L30.451 3.6527H33.0304L35.2212 6.59225L35.8573 7.61849H35.8926L36.511 6.59225L38.7371 3.6527H41.2813ZM69.5522 9.13175C69.5522 11.306 68.5452 12.9584 66.1424 12.9584C63.7572 12.9584 62.7325 11.2886 62.7325 9.13175C62.7325 6.94013 63.7396 5.30511 66.1424 5.30511C68.5275 5.30511 69.5522 6.95752 69.5522 9.13175ZM71.6194 9.13175C71.6194 5.86171 69.7996 3.47876 66.1247 3.47876C62.4852 3.47876 60.6654 5.8965 60.6654 9.13175C60.6654 12.367 62.4675 14.7847 66.1424 14.7847C69.7643 14.7847 71.6194 12.3496 71.6194 9.13175ZM78.8184 3.47876C81.7159 3.47876 83.518 4.99202 83.518 7.68806V14.6108H81.4509V8.00115C81.4509 6.41831 80.9739 5.30511 78.5711 5.30511C76.769 5.30511 75.3732 6.27916 75.3732 8.1403V14.6108H73.3061V3.6527H75.3732V4.83548H75.4085C76.1683 4.00058 77.511 3.47876 78.8184 3.47876ZM91.3083 12.1235C90.5839 12.7497 90.0892 12.9584 89.4001 12.9584C88.5521 12.9584 88.0044 12.3844 88.0044 11.2364V5.6182L87.8984 5.40947H93.555V14.6108H104.509V12.6801H95.4631L95.6751 12.4714V8.73169V8.15335V6.60965V6.38353V6.34149V5.40947H101.221V3.6527H95.6751V2.66125L95.4631 2.45253H104.509V0.521814H93.555V3.6527H87.8984L88.0044 3.44397V0.73054L85.9373 1.82635V3.44397L86.0609 3.6527H84.6652V5.40947H86.0609L85.9373 5.6182V11.219C85.9373 13.4454 87.174 14.7847 89.3118 14.7847C90.4955 14.7847 91.4849 14.3847 92.6863 13.4802L91.3083 12.1235ZM116.669 7.68806C116.669 4.99202 114.867 3.47876 111.97 3.47876C110.662 3.47876 109.319 4.00058 108.56 4.83548H108.524V3.6527H106.457V14.6108H108.524V8.1403C108.524 6.27916 109.92 5.30511 111.722 5.30511C114.125 5.30511 114.602 6.41831 114.602 8.00115V14.6108H116.669V7.68806Z" fill="white"/>
</svg>
