<svg width="348" height="40" viewBox="0 0 348 40" fill="none" xmlns="http://www.w3.org/2000/svg">
<path fill-rule="evenodd" clip-rule="evenodd" d="M333.038 34.888C339.602 34.888 342.123 30.5796 342.123 24.6791C342.123 18.7318 339.65 14.3298 333.038 14.3298C326.569 14.3298 323.952 18.7786 323.952 24.6791C323.952 30.5796 326.473 34.888 333.038 34.888ZM341.742 0H347.308V39.3368H341.742V36.4333H341.647C339.602 38.6343 336.51 39.8051 332.61 39.8051C323.144 39.8051 318.387 33.4362 318.387 24.726C318.387 15.8752 323.144 9.36589 332.61 9.36589C336.32 9.36589 339.65 10.7708 341.647 12.9718H341.742V0ZM142.642 1.40488H114.102V39.3368H119.81V24.445V15.122H145.959V39.3368H151.524V24.7728C151.524 17.7484 155.377 15.0323 160.372 15.0791H162.132V9.50638H160.847C156.899 9.50638 153.332 11.3327 151.619 14.564H151.524V9.83419H145.959H119.81V7.16491L119.239 6.60295H142.642V1.40488ZM66.0262 9.36589C57.8319 9.36589 52.6622 14.2933 51.4569 21.4648H48.5579V0.975586H42.6121V21.4648H32.0032L23.0224 1.95068H17.4571L0 39.8826H6.23127L10.2745 31.0786L12.0052 27.3185H28.5926L30.205 31.0786L34.2482 39.8826H40.4795L34.6972 27.3185H42.6121V40.0001H48.5579V27.3185H51.3312C52.2009 34.5421 56.9826 39.8051 66.264 39.8051C70.8305 39.8051 74.8261 38.4002 78.2033 35.3563L74.398 31.6099C72.0196 33.8109 69.4034 34.9348 66.264 34.9348C60.8414 34.9348 57.8447 32.125 56.9885 27.5357L56.7678 27.3185H80.7646L80.6419 25.8681C80.6652 25.5148 80.6768 25.1672 80.6768 24.8196C80.6768 16.0157 75.9677 9.36589 66.0262 9.36589ZM26.0824 21.4648L20.5926 8.66274L14.6997 21.4648L26.0824 21.4648ZM66.0262 14.2362C71.0982 14.2362 73.9446 17.0664 74.8401 21.4648L57.1219 21.4648C58.1064 17.2009 60.8154 14.2362 66.0262 14.2362ZM111.142 9.83419L99.9637 24.5386L111.237 39.3368H104.292L98.1562 31.1416L96.5865 28.5192H96.4913L94.9692 31.1416L88.7855 39.3368H81.8883L93.1617 24.5386L81.9834 9.83419H88.9282L94.8265 17.7484L96.5389 20.5113H96.634L98.2989 17.7484L104.292 9.83419H111.142ZM187.256 24.5855C187.256 30.4392 184.545 34.888 178.076 34.888C171.654 34.888 168.895 30.3923 168.895 24.5855C168.895 18.685 171.607 14.283 178.076 14.283C184.497 14.283 187.256 18.7318 187.256 24.5855ZM192.821 24.5855C192.821 15.7815 187.922 9.36589 178.028 9.36589C168.229 9.36589 163.33 15.8752 163.33 24.5855C163.33 33.2958 168.182 39.8051 178.076 39.8051C187.827 39.8051 192.821 33.2489 192.821 24.5855ZM212.204 9.36589C220.005 9.36589 224.856 13.4401 224.856 20.6986V39.3368H219.291V21.5416C219.291 17.2801 218.007 14.283 211.538 14.283C206.686 14.283 202.928 16.9054 202.928 21.9162V39.3368H197.363V9.83419H202.928V13.0186H203.023C205.068 10.7708 208.684 9.36589 212.204 9.36589ZM245.83 32.6401C243.88 34.326 242.548 34.888 240.693 34.888C238.41 34.888 236.935 33.3426 236.935 30.2518V15.1259L236.65 14.564H251.879V39.3368H281.37V34.1387H257.016L257.587 33.5767V23.5084V21.9513V17.7952V17.1864V17.0732V14.564H272.519V9.83419H257.587V7.16491L257.016 6.60295H281.37V1.40488H251.879V9.83419H236.65L236.935 9.27224V1.96684L231.37 4.9171V9.27224L231.703 9.83419H227.945V14.564H231.703L231.37 15.1259V30.205C231.37 36.1992 234.699 39.8051 240.455 39.8051C243.642 39.8051 246.306 38.728 249.54 36.2928L245.83 32.6401ZM314.109 20.6986C314.109 13.4401 309.258 9.36589 301.457 9.36589C297.937 9.36589 294.322 10.7708 292.276 13.0186H292.181V9.83419H286.616V39.3368H292.181V21.9162C292.181 16.9054 295.939 14.283 300.791 14.283C307.26 14.283 308.544 17.2801 308.544 21.5416V39.3368H314.109V20.6986Z" fill="#6340CA"/>
</svg>
