<svg width="22" height="22" viewBox="0 0 26 26" fill="none" xmlns="http://www.w3.org/2000/svg">
<path d="M19.5866 13.455L12.8916 20.1608C12.0139 20.9408 10.8714 21.356 9.69767 21.3215C8.52396 21.2869 7.4078 20.8053 6.57751 19.975C5.74721 19.1447 5.26552 18.0285 5.23097 16.8548C5.19642 15.6811 5.61162 14.5385 6.39164 13.6608L15.0583 4.99416C15.5757 4.50265 16.2621 4.2286 16.9758 4.2286C17.6895 4.2286 18.3759 4.50265 18.8933 4.99416C19.3974 5.50505 19.6801 6.19392 19.6801 6.91166C19.6801 7.6294 19.3974 8.31827 18.8933 8.82916L11.4183 16.2933C11.3443 16.373 11.2554 16.4373 11.1565 16.4826C11.0577 16.5279 10.9509 16.5533 10.8423 16.5573C10.7336 16.5613 10.6253 16.5439 10.5233 16.5061C10.4214 16.4682 10.328 16.4106 10.2483 16.3367C10.1686 16.2627 10.1043 16.1737 10.059 16.0749C10.0137 15.9761 9.98834 15.8693 9.98432 15.7606C9.9803 15.652 9.99771 15.5436 10.0356 15.4417C10.0734 15.3398 10.131 15.2463 10.205 15.1667L15.7625 9.62C15.9665 9.416 16.0811 9.13932 16.0811 8.85083C16.0811 8.56234 15.9665 8.28566 15.7625 8.08166C15.5585 7.87767 15.2818 7.76306 14.9933 7.76306C14.7048 7.76306 14.4281 7.87767 14.2241 8.08166L8.66664 13.65C8.38855 13.9259 8.16783 14.2542 8.01721 14.6158C7.86659 14.9774 7.78904 15.3653 7.78904 15.7571C7.78904 16.1488 7.86659 16.5367 8.01721 16.8983C8.16783 17.26 8.38855 17.5882 8.66664 17.8642C9.23471 18.4053 9.98918 18.7071 10.7737 18.7071C11.5583 18.7071 12.3127 18.4053 12.8808 17.8642L20.345 10.3892C21.2061 9.46502 21.6749 8.24272 21.6526 6.97977C21.6303 5.71681 21.1187 4.51181 20.2255 3.61862C19.3323 2.72544 18.1273 2.21381 16.8644 2.19152C15.6014 2.16924 14.3791 2.63804 13.455 3.49916L4.7883 12.1658C3.6196 13.4602 2.99542 15.1557 3.0458 16.8989C3.09618 18.6421 3.81724 20.2987 5.05875 21.5234C6.30025 22.7482 7.96645 23.4466 9.71019 23.4733C11.4539 23.5 13.1407 22.8528 14.4191 21.6667L21.125 14.9717C21.226 14.8707 21.3061 14.7507 21.3608 14.6188C21.4154 14.4868 21.4436 14.3453 21.4436 14.2025C21.4436 14.0596 21.4154 13.9182 21.3608 13.7862C21.3061 13.6543 21.226 13.5343 21.125 13.4333C21.024 13.3323 20.904 13.2522 20.7721 13.1975C20.6401 13.1429 20.4987 13.1147 20.3558 13.1147C20.213 13.1147 20.0715 13.1429 19.9395 13.1975C19.8076 13.2522 19.6876 13.3323 19.5866 13.4333V13.455Z" fill="#F5F5F5"/>
</svg>
