<svg width="24" height="24" viewBox="0 0 24 24" fill="none" xmlns="http://www.w3.org/2000/svg">
<path fill-rule="evenodd" clip-rule="evenodd" d="M10.3842 2.93189C10.982 1.49462 13.018 1.49463 13.6158 2.93189L15.6319 7.77931C15.668 7.86587 15.7494 7.92501 15.8428 7.9325L21.076 8.35204C22.6276 8.47644 23.2568 10.4128 22.0746 11.4255L18.0875 14.8409C18.0163 14.9019 17.9852 14.9976 18.0069 15.0888L19.2251 20.1955C19.5863 21.7096 17.9391 22.9064 16.6106 22.095L12.1303 19.3584C12.0503 19.3095 11.9497 19.3095 11.8697 19.3584L7.38932 22.095C6.0609 22.9064 4.41371 21.7096 4.77489 20.1955L5.99303 15.0888C6.01478 14.9976 5.98369 14.9019 5.91249 14.8409L1.92534 11.4255C0.743151 10.4128 1.37233 8.47644 2.92397 8.35204L8.15717 7.9325C8.25061 7.92501 8.33202 7.86587 8.36802 7.77931L10.3842 2.93189ZM12.2308 3.50794C12.1454 3.30261 11.8546 3.30261 11.7692 3.50793L9.753 8.35536C9.50099 8.96127 8.93117 9.37526 8.27704 9.4277L3.04384 9.84725C2.82217 9.86502 2.7323 10.1416 2.90118 10.2863L6.88832 13.7017C7.3867 14.1286 7.60435 14.7985 7.45209 15.4368L6.23395 20.5435C6.18235 20.7598 6.41767 20.9308 6.60744 20.8149L11.0878 18.0783C11.6478 17.7362 12.3521 17.7362 12.9122 18.0783L17.3925 20.8149C17.5823 20.9308 17.8176 20.7598 17.766 20.5435L16.5479 15.4368C16.3956 14.7985 16.6133 14.1286 17.1116 13.7017L21.0988 10.2863C21.2677 10.1416 21.1778 9.86502 20.9561 9.84725L15.7229 9.4277C15.0688 9.37526 14.499 8.96127 14.247 8.35536L12.2308 3.50794Z" fill="#6340CA"/>
</svg>